<?xml version="1.0" encoding="utf-8"?>
<!-- Generator: Adobe Illustrator 20.0.0, SVG Export Plug-In . SVG Version: 6.00 Build 0)  -->
<svg version="1.1" id="Calque_1" xmlns="http://www.w3.org/2000/svg" xmlns:xlink="http://www.w3.org/1999/xlink" x="0px" y="0px"
	 viewBox="0 0 600 335" style="enable-background:new 0 0 600 335;" xml:space="preserve">
<style type="text/css">
	.st0{fill:#2E2A24;}
	.st1{fill:#372E21;stroke:#372E21;stroke-linecap:round;stroke-linejoin:round;stroke-miterlimit:10;}
	.st2{fill:#372E21;}
</style>
<g>
	<g>
		<path class="st0" d="M301.4,166c-14.6-8.5-29.1-16.9-43.7-25.4c-0.7-0.4-2.6-0.1-2.6,0.9c0,14.8,0,29.6,0,44.4
			c0,1.3-0.5,3.9,0,5.2c0.5,1.2,2.1,1.7,3.3,2.4c7.4,4.3,14.9,8.7,22.3,13c6.1,3.6,12.3,7.1,18.4,10.7c0.7,0.4,2.6,0.1,2.6-0.9
			c0-16.5,0-33,0-49.5c0-1.5-2.9-1-2.9,0.2c0,16.5,0,33,0,49.5c0.9-0.3,1.7-0.6,2.6-0.9c-12.6-7.3-25.2-14.7-37.8-22
			c-1.7-1-4.3-1.9-5.7-3.3c-0.2-0.2,0.3,1.1,0.1-0.1c-0.1-1,0-2.1,0-3c0-8.5,0-17,0-25.5c0-6.8,0-13.6,0-20.3
			c-0.9,0.3-1.7,0.6-2.6,0.9c14.6,8.5,29.1,16.9,43.7,25.4C300.2,168.2,302.8,166.8,301.4,166z"/>
	</g>
</g>
<g>
	<g>
		<path class="st0" d="M301.5,166c-14.6-8.5-29.1-16.9-43.7-25.4c-0.1,0.4-0.2,0.8-0.2,1.2c14.6-8.5,29.1-16.9,43.7-25.4
			c-0.7,0.1-1.4,0.2-2.1,0.3c14.6,8.5,29.1,16.9,43.7,25.4c0.1-0.4,0.2-0.8,0.2-1.2c-14.6,8.5-29.1,16.9-43.7,25.4
			c-1.7,1,0.8,1.5,1.8,1c14.6-8.5,29.1-16.9,43.7-25.4c0.4-0.3,0.8-0.9,0.2-1.2c-14.6-8.5-29.1-16.9-43.7-25.4
			c-0.6-0.4-1.5-0.1-2.1,0.3c-14.6,8.5-29.1,16.9-43.7,25.4c-0.4,0.3-0.8,0.9-0.2,1.2c14.6,8.5,29.1,16.9,43.7,25.4
			C300,168,302.7,166.8,301.5,166z"/>
	</g>
</g>
<g>
	<g>
		<path class="st0" d="M298.9,166.9c0,16.5,0,33,0,49.5c0,1.2,1.8,0.8,2.4,0.4c12.9-7.5,25.8-15,38.7-22.5c1.3-0.8,4-1.7,5-2.9
			c0.8-1,0.5-2.2,0.5-3.6c0-8.4,0-16.9,0-25.3c0-7.1,0-14.2,0-21.3c0-1.2-1.8-0.8-2.4-0.4c-14.6,8.5-29.1,16.9-43.7,25.4
			c-1.7,1,0.8,1.8,1.9,1.2c14.6-8.5,29.1-16.9,43.7-25.4c-0.8-0.1-1.6-0.3-2.4-0.4c0,14.5,0,28.9,0,43.4c0,1.8,0.4,4.3,0,6
			c0.2-0.6,0.8-0.8-0.3-0.2c-1,0.6-1.9,1.1-2.9,1.7c-7.5,4.4-15,8.7-22.5,13.1c-5.8,3.4-11.7,6.8-17.5,10.2c0.8,0.1,1.6,0.3,2.4,0.4
			c0-16.5,0-33,0-49.5C301.8,165.2,298.9,165.7,298.9,166.9z"/>
	</g>
</g>
<g>
	<g>
		<path class="st0" d="M298.9,116.3c0,7.3,0,14.7,0,22c0,4.5,1.9,7.6,3.7,11.9c6,13.7,12.1,27.4,18.1,41c0.1,0.3,0.6,0.3,0.8,0.3
			c7.3,0,14.6,0,21.9,0c0.9,0,3.1-1.4,1.2-1.4c-3.2,0-6.3,0-9.5,0c-3.7,0-8.3,0.8-11.9,0c-0.9-0.2,0.7,0.8,0.1-0.2
			c-0.5-0.9-0.8-1.9-1.2-2.8c-1.4-3.2-2.8-6.4-4.2-9.6c-3.8-8.6-7.6-17.3-11.4-25.9c-1.6-3.7-4.3-7.8-4.7-11.8
			c-0.8-7.9,0-16.3,0-24.3C301.8,114.9,298.9,115.4,298.9,116.3L298.9,116.3z"/>
	</g>
</g>
<g>
	<g>
		<path class="st0" d="M298.9,116.3c0,7.3,0,14.7,0,22c0,4.4-1.9,7.7-3.9,12c-6,13.6-12,27.1-17.9,40.7c0.7-0.3,1.3-0.7,2-1
			c-15.4,0-30.9,0-46.3,0c-1,0-3.1,1.6-1.1,1.6c15.4,0,30.9,0,46.3,0c0.7,0,1.7-0.3,2-1c6.1-13.8,12.2-27.6,18.2-41.4
			c1.7-3.8,3.6-6.9,3.6-11c0-7.6,0-15.1,0-22.7C301.8,114.7,298.9,115.3,298.9,116.3L298.9,116.3z"/>
	</g>
</g>
<g>
	<g>
		<path class="st0" d="M277.1,191.2c7.3,8.5,14.5,17,21.8,25.5c0.5,0.6,2.5-0.2,2.9-0.7c7.3-8.5,14.5-17,21.8-25.5
			c0.1-0.1-2.3-0.1-2.9,0.5c-7.3,8.5-14.5,17-21.8,25.5c1-0.2,1.9-0.4,2.9-0.7c-7.3-8.5-14.5-17-21.8-25.5
			C279.4,189.8,276.9,191.1,277.1,191.2L277.1,191.2z"/>
	</g>
</g>
<g>
	<g>
		<path class="st0" d="M338,182.8c3.6,0,7.2,0,10.9,0c1.2,0,3-1.8,1.1-1.8c-3.6,0-7.2,0-10.9,0C337.9,181,336.1,182.8,338,182.8
			L338,182.8z"/>
	</g>
</g>
<g>
	<g>
		<path class="st0" d="M334.9,171.6c6,0,12,0,17.9,0c1.7,0,2.2-2.2,0.2-2.2c-6,0-12,0-17.9,0C333.5,169.4,333,171.6,334.9,171.6
			L334.9,171.6z"/>
	</g>
</g>
<g>
	<g>
		<path class="st0" d="M301.2,167.1c20.7-12.1,41.4-24.3,62.1-36.4c1.7-1-0.9-1-1.7-0.6c-20.7,12.1-41.4,24.3-62.1,36.4
			C297.8,167.5,300.4,167.5,301.2,167.1L301.2,167.1z"/>
	</g>
</g>
<g>
	<path class="st1" d="M232.3,140.4c0.2-0.8,0.5-1.7,0.9-2.6c0.8-1.7,1.7-2.7,2.8-3.2c1.1-0.5,2.4-0.5,3.9,0.2c1.5,0.7,2.5,1.7,3,2.9
		c0.5,1.2,0.3,2.9-0.5,4.7c-0.4,0.8-0.7,1.5-1.1,2.1L232.3,140.4z M241,142.9c0.2-0.3,0.4-0.7,0.6-1.2c1.1-2.5,0.3-4.6-2.1-5.7
		c-2.2-1-4.1-0.4-5.2,2.1c-0.3,0.6-0.4,1.1-0.5,1.4L241,142.9z"/>
	<path class="st1" d="M245.2,130.3l2,2.7l-0.8,1.1l-6.3-8.6l0.9-1.3l10.3,3l-0.8,1.1l-3.2-0.9L245.2,130.3z M246.3,127l-2.9-0.9
		c-0.7-0.2-1.2-0.4-1.8-0.6l0,0c0.4,0.5,0.8,1,1.2,1.5l1.8,2.5L246.3,127z"/>
	<path class="st1" d="M248.1,117.4l-2.1,2.2l-0.8-0.8l5.2-5.4l0.8,0.8l-2.1,2.2l6.5,6.2l-0.9,1L248.1,117.4z"/>
	<path class="st1" d="M259,115.2l1.1,3.2l-1.1,0.8l-3.4-10.1l1.3-1l8.9,6l-1.1,0.8l-2.8-1.9L259,115.2z M261,112.4l-2.5-1.7
		c-0.6-0.4-1.1-0.8-1.5-1.2l0,0c0.2,0.6,0.5,1.2,0.7,1.8l1,2.9L261,112.4z"/>
	<path class="st1" d="M265.7,103.7l-2.7,1.5l-0.5-1l6.6-3.5l0.5,1l-2.7,1.5l4.3,7.9l-1.2,0.6L265.7,103.7z"/>
	<path class="st1" d="M275.3,98.1l1.3,4l4.7-1.5l-1.3-4l1.3-0.4l3.1,9.6l-1.3,0.4l-1.5-4.5l-4.7,1.5l1.5,4.5l-1.2,0.4l-3.1-9.6
		L275.3,98.1z"/>
	<path class="st1" d="M288.8,94.7l1.7,10l-1.3,0.2l-1.7-10L288.8,94.7z"/>
	<path class="st1" d="M295.3,104l-0.2-10.1l1.4,0l3.3,5.1c0.8,1.2,1.4,2.2,1.9,3.2l0,0c-0.1-1.3-0.2-2.6-0.2-4.2l-0.1-4.2l1.2,0
		l0.2,10.1l-1.3,0l-3.3-5.1c-0.7-1.1-1.4-2.3-2-3.3l0,0c0.1,1.3,0.2,2.5,0.2,4.2l0.1,4.3L295.3,104z"/>
	<path class="st1" d="M315.3,105.1c-0.6,0.1-1.8,0.2-3.2,0c-1.5-0.3-2.7-0.9-3.5-2c-0.7-1-1-2.4-0.7-4c0.5-3,3-4.8,6.3-4.2
		c1.2,0.2,2,0.6,2.4,0.9l-0.5,1c-0.5-0.3-1.1-0.6-2.1-0.8c-2.4-0.4-4.3,0.8-4.7,3.3c-0.4,2.5,0.8,4.3,3.1,4.7c0.8,0.1,1.4,0.1,1.8,0
		l0.5-3l-2-0.4l0.2-1l3.3,0.6L315.3,105.1z"/>
	<path class="st1" d="M320,105.3c0.4,0.5,1.1,1.1,2,1.4c1.3,0.5,2.2,0.1,2.6-0.9c0.3-0.9,0-1.6-1.1-2.5c-1.3-1.1-2-2.3-1.5-3.6
		c0.5-1.5,2.2-2.1,4-1.4c1,0.4,1.6,0.8,1.9,1.2l-0.7,0.9c-0.2-0.3-0.8-0.8-1.6-1.1c-1.3-0.5-2.1,0.1-2.3,0.8
		c-0.3,0.9,0.1,1.5,1.2,2.5c1.4,1.2,1.9,2.3,1.4,3.7c-0.5,1.5-2.1,2.3-4.3,1.5c-0.9-0.3-1.8-1-2.2-1.5L320,105.3z"/>
</g>
<g>
	<path class="st2" d="M246.9,216.4c0.1,0.4,0.4,1,0.8,1.4c0.6,0.6,1.3,0.7,1.8,0.2c0.5-0.4,0.5-0.9,0.1-1.8
		c-0.5-1.1-0.6-1.9,0.1-2.6c0.8-0.7,1.9-0.7,2.8,0.3c0.5,0.5,0.7,1,0.8,1.3l-0.7,0.3c-0.1-0.2-0.2-0.7-0.7-1.1
		c-0.6-0.7-1.3-0.5-1.6-0.2c-0.5,0.4-0.4,1,0,1.9c0.5,1.1,0.5,1.9-0.2,2.6c-0.7,0.7-1.9,0.8-3-0.3c-0.5-0.5-0.8-1.1-0.9-1.5
		L246.9,216.4z"/>
	<path class="st2" d="M258.2,223.4c-1.5,1.8-3.3,1.9-4.7,0.8c-1.4-1.1-1.5-3-0.2-4.6c1.4-1.7,3.3-1.9,4.7-0.8
		C259.4,220,259.4,221.9,258.2,223.4z M254.1,220.2c-0.9,1.1-1.1,2.6-0.1,3.5c1.1,0.9,2.5,0.4,3.4-0.8c0.8-1,1.2-2.6,0.1-3.5
		C256.4,218.5,255,219,254.1,220.2z"/>
	<path class="st2" d="M262.6,222.5l3.1,2l-0.4,0.6l-2.3-1.5l-1.2,1.9l2.1,1.4l-0.4,0.6l-2.1-1.4l-1.7,2.6l-0.7-0.5L262.6,222.5z"/>
	<path class="st2" d="M269,227.1l-1.8-0.9l0.3-0.7l4.4,2.3l-0.3,0.7l-1.8-0.9l-2.7,5.3l-0.8-0.4L269,227.1z"/>
	<path class="st2" d="M273.3,235.7l0.6-6.9l0.9,0.3l-0.4,3.5c-0.1,0.9-0.2,1.7-0.3,2.4l0,0c0.3-0.6,0.8-1.3,1.3-2l2-2.9l0.9,0.3
		l-0.4,3.5c-0.1,0.8-0.2,1.6-0.3,2.3l0,0c0.4-0.7,0.8-1.3,1.3-2l2-2.9l0.8,0.3l-4.1,5.7l-0.9-0.3l0.4-3.6c0.1-0.9,0.2-1.5,0.3-2.2
		l0,0c-0.3,0.6-0.7,1.2-1.2,1.9l-2.1,3L273.3,235.7z"/>
	<path class="st2" d="M283.7,236.7l-1.1,1.9l-0.9-0.2l3.7-6.1l1,0.2l0.8,7.1l-0.9-0.2l-0.2-2.2L283.7,236.7z M286,236.5l-0.2-2
		c-0.1-0.5-0.1-0.9-0.1-1.3l0,0c-0.2,0.4-0.4,0.7-0.6,1.1l-1.1,1.8L286,236.5z"/>
	<path class="st2" d="M291.3,233.5c0.4,0,1.1,0,1.7,0c0.9,0.1,1.5,0.3,1.9,0.8c0.3,0.3,0.4,0.8,0.4,1.3c-0.1,0.9-0.7,1.4-1.4,1.6
		l0,0c0.5,0.2,0.8,0.7,0.8,1.5c0.1,1,0.2,1.6,0.3,1.9l-0.9-0.1c-0.1-0.2-0.2-0.8-0.3-1.6c-0.1-0.9-0.4-1.3-1.2-1.4l-0.8-0.1
		l-0.3,2.9l-0.9-0.1L291.3,233.5z M291.8,236.7l0.9,0.1c0.9,0.1,1.6-0.3,1.6-1.1c0.1-0.9-0.5-1.3-1.4-1.4c-0.4,0-0.7,0-0.9,0
		L291.8,236.7z"/>
	<path class="st2" d="M301.9,237.6l-2.6,0l0,2.4l2.9,0l0,0.7l-3.8-0.1l0.1-6.7l3.6,0l0,0.7l-2.8,0l0,2.1l2.6,0L301.9,237.6z"/>
	<path class="st2" d="M309,233.5l3.6-0.5l0.1,0.7l-2.7,0.4l0.3,2.2l2.5-0.4l0.1,0.7l-2.5,0.4l0.5,3l-0.9,0.1L309,233.5z"/>
	<path class="st2" d="M321.9,234c0.6,2.2-0.4,3.8-2.1,4.2c-1.7,0.5-3.3-0.5-3.8-2.5c-0.6-2.1,0.4-3.8,2.1-4.2
		C319.8,231.1,321.4,232.1,321.9,234z M316.9,235.5c0.4,1.4,1.5,2.4,2.8,2.1c1.3-0.4,1.7-1.8,1.3-3.3c-0.4-1.3-1.4-2.5-2.8-2.1
		C316.8,232.6,316.5,234.1,316.9,235.5z"/>
	<path class="st2" d="M323.7,230c0.4-0.2,0.9-0.5,1.5-0.8c0.9-0.3,1.5-0.4,2-0.2c0.4,0.2,0.8,0.5,1,1c0.3,0.8,0,1.6-0.5,2.1l0,0
		c0.5,0,1,0.3,1.4,0.9c0.6,0.8,0.9,1.3,1.2,1.5l-0.8,0.3c-0.2-0.1-0.5-0.6-1-1.3c-0.5-0.8-1-1-1.7-0.7l-0.8,0.3l1.1,2.7l-0.8,0.3
		L323.7,230z M325.6,232.5l0.8-0.3c0.9-0.3,1.2-1,0.9-1.8c-0.3-0.8-1.1-0.9-1.9-0.6c-0.4,0.2-0.7,0.3-0.8,0.4L325.6,232.5z"/>
	<path class="st2" d="M333.7,225.3c0.4-0.3,0.9-0.7,1.5-1.1c1.1-0.7,2-0.9,2.8-0.7c0.8,0.1,1.5,0.6,2.1,1.5c0.6,0.9,0.8,1.9,0.6,2.7
		c-0.2,0.9-0.9,1.7-2,2.4c-0.5,0.3-1,0.6-1.4,0.8L333.7,225.3z M337.6,229.9c0.2-0.1,0.5-0.2,0.8-0.4c1.6-1,1.9-2.4,0.9-3.9
		c-0.8-1.4-2.1-1.7-3.7-0.8c-0.4,0.2-0.6,0.5-0.8,0.6L337.6,229.9z"/>
	<path class="st2" d="M344.3,223.7l0.8,2.1l-0.7,0.6l-2.4-6.7l0.8-0.7l6,3.8l-0.7,0.6l-1.9-1.2L344.3,223.7z M345.6,221.7l-1.7-1.1
		c-0.4-0.2-0.7-0.5-1-0.7l0,0c0.2,0.4,0.3,0.8,0.5,1.2l0.7,1.9L345.6,221.7z"/>
	<path class="st2" d="M347.4,215.8l-1.5,1.4l-0.5-0.5l3.6-3.5l0.5,0.5l-1.5,1.4l4.2,4.3l-0.6,0.6L347.4,215.8z"/>
	<path class="st2" d="M354.4,214.1l1.2,1.9l-0.6,0.7l-3.7-6.1l0.7-0.8l6.6,2.6l-0.6,0.7l-2.1-0.8L354.4,214.1z M355.3,212l-1.9-0.8
		c-0.4-0.2-0.8-0.4-1.2-0.5l0,0c0.2,0.3,0.5,0.7,0.7,1l1.1,1.8L355.3,212z"/>
	<path class="st2" d="M362.1,205.6c0.4-0.2,0.9-0.6,1.2-1.1c0.5-0.8,0.3-1.5-0.3-1.8c-0.5-0.3-1-0.2-1.8,0.4c-0.9,0.7-1.7,1-2.6,0.6
		c-0.9-0.5-1.1-1.7-0.5-2.8c0.4-0.6,0.7-0.9,1-1.1l0.5,0.6c-0.2,0.1-0.6,0.4-0.9,0.9c-0.5,0.8-0.2,1.4,0.2,1.6
		c0.5,0.3,1,0.1,1.8-0.5c1-0.8,1.7-1,2.6-0.5c0.9,0.5,1.3,1.7,0.5,3c-0.3,0.6-0.9,1.1-1.2,1.3L362.1,205.6z"/>
	<path class="st2" d="M368.5,195.2c0,0.4-0.1,1-0.5,1.8c-0.8,1.7-2.5,2.5-4.5,1.6c-1.9-0.9-2.6-2.8-1.7-4.7c0.4-0.8,0.7-1.2,0.9-1.3
		l0.6,0.5c-0.3,0.2-0.6,0.6-0.8,1.1c-0.7,1.4-0.2,2.8,1.4,3.5c1.5,0.7,2.9,0.3,3.5-1.2c0.2-0.5,0.3-1,0.3-1.4L368.5,195.2z"/>
	<path class="st2" d="M363.8,189l6.3,2.3l-0.3,0.8l-6.3-2.3L363.8,189z"/>
	<path class="st2" d="M369.2,183.4l-0.7,2.5l2.3,0.6l0.8-2.8l0.7,0.2l-1,3.7l-6.5-1.7l0.9-3.5l0.7,0.2l-0.7,2.7l2.1,0.6l0.7-2.5
		L369.2,183.4z"/>
	<path class="st2" d="M373.1,180.4l-6.7-1l0.1-0.9l3.7-1.6c0.9-0.4,1.6-0.7,2.3-0.9l0,0c-0.9-0.1-1.7-0.2-2.8-0.3l-2.8-0.4l0.1-0.8
		l6.7,1l-0.1,0.9l-3.7,1.6c-0.8,0.4-1.6,0.7-2.4,0.9l0,0c0.8,0.1,1.7,0.2,2.8,0.3l2.8,0.4L373.1,180.4z"/>
	<path class="st2" d="M374.1,166.8c0.1,0.3,0.3,1,0.3,1.8c-0.1,1.9-1.3,3.3-3.5,3.2c-2.1-0.1-3.5-1.5-3.4-3.6c0-0.8,0.2-1.4,0.4-1.6
		l0.7,0.2c-0.2,0.3-0.3,0.8-0.3,1.4c-0.1,1.6,0.9,2.7,2.7,2.7c1.6,0.1,2.7-0.9,2.8-2.5c0-0.5-0.1-1.1-0.2-1.4L374.1,166.8z"/>
	<path class="st2" d="M370.9,160l0.2,2.6l2.4-0.2l-0.2-2.9l0.7-0.1l0.3,3.8l-6.7,0.5l-0.2-3.6l0.7,0l0.2,2.8l2.1-0.1l-0.2-2.6
		L370.9,160z"/>
</g>
</svg>
