<?xml version="1.0" standalone="no"?>
<!DOCTYPE svg PUBLIC "-//W3C//DTD SVG 20010904//EN"
 "http://www.w3.org/TR/2001/REC-SVG-20010904/DTD/svg10.dtd">
<svg version="1.0" xmlns="http://www.w3.org/2000/svg"
 width="16.000000pt" height="16.000000pt" viewBox="0 0 16.000000 16.000000"
 preserveAspectRatio="xMidYMid meet">
<metadata>
Created by potrace 1.11, written by Peter Selinger 2001-2013
</metadata>
<g transform="translate(0.000000,16.000000) scale(0.002822,-0.002822)"
fill="#000000" stroke="none">
<path d="M2938 4635 c-1 -2 -32 -6 -68 -10 -36 -3 -76 -8 -90 -10 -21 -2 -191
-22 -350 -41 -58 -6 -134 -16 -150 -19 -8 -2 -49 -6 -90 -10 -41 -4 -94 -10
-118 -15 -36 -6 -46 -4 -61 11 -45 49 -121 25 -123 -39 -1 -30 -14 -43 -138
-142 -129 -103 -160 -123 -160 -101 0 14 -54 32 -98 33 -49 0 -112 -33 -135
-72 -31 -51 -32 -109 -3 -164 l25 -50 -172 -245 c-94 -135 -176 -249 -181
-253 -6 -4 -13 -5 -18 -2 -4 3 -14 -6 -23 -20 -13 -20 -14 -28 -4 -44 10 -16
4 -59 -30 -238 -24 -120 -43 -226 -44 -235 -1 -20 190 -457 211 -481 8 -10 27
-18 41 -18 41 0 71 -11 71 -25 0 -8 10 -22 23 -32 20 -16 23 -27 24 -102 l0
-85 50 -45 c27 -26 87 -80 133 -121 46 -41 88 -80 94 -85 44 -42 54 -44 125
-18 l68 24 68 -47 67 -47 126 1 c70 0 133 1 140 1 6 1 32 33 57 71 35 55 50
70 69 70 13 0 28 -6 33 -12 6 -7 45 -103 87 -213 43 -110 83 -206 88 -213 22
-25 28 -1 44 156 6 58 11 70 40 97 27 26 32 37 28 63 -6 38 -3 43 99 155 44
47 112 134 153 194 66 96 77 107 106 109 19 2 40 12 49 23 16 19 25 20 145 15
l129 -5 120 59 c116 57 123 62 205 156 59 67 94 99 114 103 16 3 31 13 33 22
3 11 69 35 226 82 l222 66 25 -23 c32 -30 74 -37 116 -19 60 25 77 93 37 151
l-26 39 53 155 c29 85 56 161 60 169 5 8 -21 74 -67 170 -41 86 -84 176 -95
201 -11 25 -38 81 -60 124 l-39 79 29 31 c38 41 50 73 47 124 -8 138 -173 195
-276 96 l-26 -25 -106 51 c-59 27 -155 73 -214 101 -60 28 -182 86 -273 129
-91 43 -219 103 -285 135 -114 54 -149 68 -157 60z m-8 -64 c-5 -14 -34 -120
-66 -236 -40 -148 -62 -214 -75 -224 -11 -7 -19 -24 -19 -37 0 -20 -114 -179
-264 -368 l-31 -38 -7 58 c-16 150 -19 222 -9 229 13 7 14 44 2 63 -4 7 -18
14 -30 15 -13 1 -42 23 -68 52 -25 27 -92 100 -148 160 -56 61 -123 133 -148
160 -42 45 -59 83 -39 86 4 1 18 2 32 4 58 6 137 16 160 20 14 2 70 9 125 15
55 6 114 13 130 15 17 2 55 6 85 10 30 3 89 10 130 15 41 5 102 12 135 16 33
3 61 7 63 9 2 1 13 3 26 3 21 0 23 -3 16 -27z m256 -77 c181 -86 220 -105 534
-253 129 -61 236 -116 237 -123 7 -32 -14 -36 -192 -43 -99 -4 -195 -8 -213
-10 -26 -2 -36 3 -53 26 -16 22 -28 29 -54 29 -19 0 -37 -4 -40 -10 -10 -17
-30 -12 -139 36 -97 43 -105 48 -104 74 1 38 -31 77 -71 87 -35 8 -35 9 -61
113 -15 58 -30 118 -34 133 -9 36 -11 37 190 -59z m-191 -77 l28 -114 -21 -21
c-12 -12 -24 -33 -28 -48 -9 -33 18 -90 46 -99 19 -6 20 -12 16 -58 -3 -29 -8
-81 -12 -117 -3 -36 -8 -66 -9 -68 -2 -2 -17 -5 -33 -7 -73 -9 -130 -64 -139
-135 -6 -43 0 -41 -183 -75 -47 -9 -100 -20 -117 -25 -18 -4 -33 -5 -33 -2 0
4 32 48 70 97 39 50 103 134 143 187 39 54 77 97 83 98 7 0 22 8 34 18 19 16
21 22 11 40 -9 17 -1 59 46 236 32 118 60 213 63 211 3 -2 19 -55 35 -118z
m-1055 15 c8 -4 16 -11 16 -17 1 -5 23 -119 50 -253 47 -239 47 -244 30 -273
-21 -35 -15 -73 14 -98 17 -14 20 -34 23 -163 3 -82 1 -148 -4 -148 -4 0 -48
26 -98 58 -77 49 -89 60 -85 79 8 32 -13 89 -41 107 -13 9 -41 16 -62 16 l-39
0 -77 131 -78 131 20 22 c45 47 54 109 27 186 -3 10 39 49 132 122 75 59 142
107 147 107 6 0 17 -3 25 -7z m212 -169 c224 -243 232 -252 233 -273 1 -11 9
-28 17 -37 10 -12 18 -48 22 -108 4 -49 9 -113 12 -141 4 -39 1 -55 -13 -72
-16 -19 -301 -167 -308 -160 -2 2 -5 72 -7 155 -4 136 -3 153 12 158 25 8 44
49 36 80 -4 14 -20 34 -36 43 -17 9 -32 24 -35 32 -5 18 -95 473 -95 483 0 4
2 7 4 7 2 0 73 -75 158 -167z m1100 -149 c116 -52 116 -52 120 -80 2 -17 -23
-41 -120 -112 l-123 -91 -40 26 c-40 26 -40 28 -35 72 3 25 8 75 12 111 7 66
17 90 39 90 7 0 18 7 25 15 7 8 14 15 16 15 2 0 50 -21 106 -46z m714 -92 c11
-28 10 -29 -177 -163 -104 -74 -194 -133 -201 -133 -7 1 -25 4 -39 7 -33 6
-86 -19 -95 -45 -7 -22 -7 -22 -169 7 -125 21 -122 20 -130 66 -4 22 -5 42 -3
44 1 1 57 43 123 91 98 71 127 88 160 91 26 1 46 9 57 23 15 19 31 21 170 27
84 3 154 6 155 7 1 0 32 2 70 3 67 3 69 2 79 -25z m-2453 -46 c31 1 57 -1 57
-5 0 -4 32 -60 71 -126 71 -119 72 -120 55 -148 -18 -32 -21 -79 -6 -107 9
-16 1 -29 -43 -77 -30 -32 -74 -80 -99 -107 -43 -47 -47 -49 -74 -38 -63 26
-121 20 -175 -20 l-27 -21 -106 64 c-73 44 -106 70 -106 83 0 10 48 87 107
170 265 376 243 348 266 339 12 -4 48 -7 80 -7z m2521 -37 c21 -12 55 -21 86
-22 l50 -2 89 -185 c102 -213 161 -339 161 -343 0 -2 -8 -3 -17 -3 -16 -1
-276 -37 -343 -49 -14 -2 -60 -9 -103 -15 l-77 -11 -35 37 c-32 34 -38 36 -79
32 l-44 -5 -66 93 -67 93 22 30 c17 23 20 38 16 68 l-6 38 182 132 c100 72
185 132 189 132 4 1 23 -8 42 -20z m-1121 -347 c76 -51 195 -20 227 58 15 36
-2 36 193 2 86 -15 100 -20 112 -42 15 -29 21 -22 -166 -220 -64 -69 -130
-140 -146 -158 -22 -26 -35 -32 -54 -29 -14 3 -32 1 -39 -3 -9 -6 -32 6 -69
35 -31 24 -117 91 -191 150 -74 58 -168 131 -208 162 -40 30 -71 57 -68 60 2
2 17 7 33 9 15 3 91 17 168 32 l140 28 14 -29 c8 -16 32 -41 54 -55z m-483
-16 c0 -2 -9 -32 -20 -67 -12 -35 -32 -101 -46 -146 -22 -74 -28 -83 -49 -83
-13 0 -37 -11 -52 -24 -24 -20 -28 -32 -28 -73 0 -39 -5 -52 -25 -69 -14 -12
-35 -31 -48 -42 -38 -33 -75 -17 -132 57 -36 46 -48 70 -44 84 11 34 12 52 3
68 -6 13 5 29 46 68 30 29 59 50 64 46 5 -3 19 7 31 22 25 32 300 178 300 159z
m319 -211 c138 -109 250 -203 248 -208 -4 -12 -6 -12 -111 -21 -130 -11 -190
-17 -203 -21 -6 -2 -17 3 -23 11 -14 16 -41 19 -55 5 -6 -5 -45 2 -94 18 -75
23 -85 29 -92 55 -5 16 -17 38 -28 50 l-20 21 47 148 c37 118 50 147 63 144 9
-2 129 -93 268 -202z m-788 138 c49 -31 89 -63 89 -71 0 -8 -20 -33 -45 -57
-40 -39 -48 -43 -80 -38 -40 6 -81 -15 -94 -51 -7 -18 -18 -22 -52 -24 -24 -1
-82 -4 -129 -7 l-85 -6 -18 42 c-19 48 -27 35 80 149 28 30 62 68 75 83 20 23
28 26 49 19 27 -10 62 -7 88 8 25 15 28 14 122 -47z m1582 44 c8 7 147 -184
147 -201 0 -8 -4 -18 -10 -21 -5 -3 -10 -15 -10 -25 0 -22 -10 -30 -48 -36
-15 -3 -119 -23 -232 -46 -251 -49 -260 -51 -260 -43 0 4 27 35 59 69 33 33
70 73 83 88 13 14 65 71 117 126 87 93 95 99 121 92 16 -5 31 -6 33 -3z
m-2366 -203 c79 -51 82 -55 73 -79 -32 -85 45 -192 144 -200 69 -5 151 51 162
112 3 18 9 35 13 37 3 2 62 7 131 11 l126 6 14 -25 c7 -14 22 -28 32 -32 10
-3 16 -9 14 -13 -3 -4 -7 -36 -10 -71 -13 -139 -18 -165 -38 -178 -10 -8 -17
-20 -16 -28 2 -8 -95 -83 -241 -188 -197 -141 -248 -173 -262 -165 -27 14 -47
11 -69 -11 -23 -23 -91 -28 -108 -7 -5 6 -53 111 -107 232 l-96 219 35 181
c19 99 37 191 40 205 2 14 7 37 11 52 7 27 7 27 38 11 18 -9 69 -40 114 -69z
m3243 3 c0 -1 -25 -69 -54 -152 l-54 -150 -35 -6 c-20 -3 -43 -12 -52 -19 -13
-11 -40 4 -185 100 -94 62 -170 118 -170 125 0 21 23 33 75 40 28 4 61 8 75
10 14 2 90 13 170 25 80 11 150 22 155 24 12 3 75 6 75 3z m-750 -111 c0 -2
-46 -33 -102 -67 -57 -35 -181 -114 -277 -176 -209 -135 -209 -135 -208 -11 1
74 3 85 24 101 13 10 23 25 23 32 0 8 8 16 18 19 16 5 289 60 357 72 17 3 57
11 90 18 76 17 75 17 75 12z m73 -59 c20 -9 35 -8 60 2 17 7 39 14 47 14 8 0
88 -48 178 -107 146 -98 162 -111 162 -137 0 -27 -4 -29 -97 -58 -54 -16 -114
-34 -133 -39 -19 -6 -69 -21 -110 -33 -41 -12 -97 -23 -125 -23 -46 -1 -50 -3
-53 -27 -3 -26 -6 -30 -112 -149 -58 -64 -78 -79 -180 -130 l-115 -57 -120 4
c-70 3 -122 9 -124 15 -2 6 -11 17 -21 25 -16 14 -15 22 20 138 42 137 45 145
65 145 20 0 54 47 48 68 -5 19 20 36 356 249 127 81 200 121 210 117 9 -4 28
-11 44 -17z m-1735 -76 c34 -46 49 -75 46 -88 -4 -13 -33 -34 -79 -57 -41 -20
-77 -36 -80 -36 -3 0 -3 12 -1 28 3 15 8 61 12 102 7 70 11 112 13 118 1 1 9
2 19 2 11 0 39 -28 70 -69z m488 16 c95 -28 128 -56 148 -130 8 -28 24 -87 36
-130 25 -87 20 -108 -36 -137 -16 -8 -64 -35 -107 -59 -72 -39 -80 -42 -95
-28 -12 13 -13 19 -3 31 12 14 11 27 -5 154 -8 65 -8 84 0 105 14 30 -2 67
-27 67 -13 0 -27 -4 -33 -10 -6 -6 -37 -5 -89 6 -44 8 -88 16 -97 17 -33 3
-26 24 23 66 45 39 52 42 79 32 39 -13 81 -5 100 19 8 11 17 19 21 20 3 0 41
-10 85 -23z m528 -30 c24 -22 26 -31 26 -107 0 -76 -2 -84 -25 -102 -29 -23
-34 -72 -10 -98 11 -13 13 -24 6 -46 -6 -16 -24 -75 -41 -131 -21 -69 -36
-103 -45 -103 -8 0 -24 -9 -36 -21 -17 -17 -20 -29 -15 -60 6 -36 1 -47 -61
-139 l-68 -99 -80 -1 c-44 -1 -87 -3 -95 -4 -8 -2 -58 -6 -110 -10 -90 -7 -96
-6 -108 14 -11 18 -10 26 8 55 18 29 20 41 12 84 -9 49 -9 50 26 73 58 38 76
70 76 139 l1 61 104 59 c65 37 114 58 130 57 37 -3 51 9 51 42 0 18 -6 31 -17
34 -13 4 -28 43 -56 142 -39 140 -39 156 0 159 10 1 56 6 103 10 47 4 86 8 87
9 2 2 27 4 57 5 45 2 58 -2 80 -22z m-753 -133 c47 -10 90 -25 100 -35 10 -10
20 -40 24 -66 10 -93 17 -138 21 -142 8 -8 -17 -40 -29 -36 -54 19 -123 9
-159 -22 -15 -14 -31 -4 -167 103 -83 65 -151 121 -151 124 0 3 34 23 76 43
62 29 80 34 101 26 19 -7 31 -6 47 5 27 19 39 19 137 0z m-319 -156 c29 -23
94 -75 145 -115 l92 -73 -14 -34 c-8 -18 -12 -36 -8 -39 9 -9 -34 -23 -94 -31
-48 -6 -53 -4 -81 24 -36 36 -97 42 -125 13 -9 -10 -24 -27 -34 -38 -17 -19
-30 -20 -243 -20 -124 0 -225 3 -225 7 0 4 108 84 239 177 170 122 247 171
267 171 17 0 47 -16 81 -42z m229 -340 c6 -16 25 -39 41 -53 29 -24 95 -48
109 -40 4 3 10 -18 14 -46 9 -63 -14 -101 -61 -105 -16 -1 -34 -4 -40 -6 -7
-1 -60 42 -119 97 -59 55 -111 101 -115 103 -4 2 -3 16 3 32 8 22 18 30 37 31
29 1 83 9 87 13 11 11 34 -2 44 -26z m-401 -8 c40 -1 47 -5 68 -37 l23 -36
-67 -182 -67 -181 -51 -18 c-28 -10 -55 -20 -61 -22 -10 -4 -33 14 -110 84
-22 20 -77 70 -123 111 l-82 73 0 75 c0 69 2 77 28 103 16 16 42 30 58 32 24
2 164 2 384 -2z m319 -169 c61 -57 109 -107 106 -111 -12 -20 -12 -66 0 -90
13 -25 11 -31 -23 -91 l-37 -64 -125 -3 -124 -3 -54 38 c-30 21 -59 41 -63 44
-7 4 113 351 126 367 1 2 15 5 31 8 16 3 31 7 33 10 8 8 16 1 130 -105z m604
-149 c-2 -6 -25 -35 -52 -64 -27 -29 -59 -65 -71 -81 -12 -15 -26 -25 -31 -21
-5 3 -23 2 -40 -1 -42 -9 -63 -57 -43 -96 7 -15 19 -29 25 -31 11 -4 2 -148
-10 -148 -3 0 -37 79 -74 176 l-69 176 21 22 c12 12 21 29 21 38 0 21 23 26
150 34 58 4 106 7 107 8 9 8 67 -3 66 -12z"/>
<path d="M1089 1496 c-3 -3 -5 -332 -2 -341 3 -11 103 -11 159 -1 36 7 88 45
105 78 6 12 13 45 16 74 4 41 0 63 -17 98 -32 67 -71 87 -175 90 -47 2 -86 3
-86 2z m185 -63 c36 -27 51 -60 50 -114 -2 -86 -49 -131 -141 -133 l-57 -1 -1
125 c0 69 1 131 3 138 7 20 115 8 146 -15z"/>
<path d="M1607 1488 c-3 -7 -35 -84 -71 -170 -36 -87 -66 -162 -66 -167 0 -23
41 5 52 35 7 19 17 35 23 35 5 1 40 2 77 3 l68 1 14 -36 c15 -36 40 -56 51
-40 4 7 -127 333 -140 349 -1 2 -5 -3 -8 -10z m58 -207 c6 -20 3 -21 -49 -21
-31 0 -56 3 -56 8 0 4 12 36 27 71 l27 63 22 -50 c12 -28 25 -60 29 -71z"/>
<path d="M1869 1488 c-35 -13 -20 -28 29 -28 26 0 52 -4 58 -8 8 -5 11 -54 11
-150 0 -111 3 -146 13 -152 8 -5 18 -6 22 -4 4 3 8 74 8 158 l0 153 52 2 c45
1 76 16 63 29 -7 8 -236 7 -256 0z"/>
<path d="M2291 1334 c-39 -93 -71 -172 -71 -176 0 -5 9 -8 19 -8 13 0 23 11
31 35 6 19 17 36 23 36 7 1 42 2 79 3 l67 2 14 -37 c8 -21 23 -38 36 -42 27
-7 29 -12 -58 195 l-68 160 -72 -168z m129 -70 c0 -2 -27 -4 -59 -4 l-60 0 23
53 c12 28 26 61 30 72 6 16 13 7 37 -48 16 -38 29 -71 29 -73z"/>
<path d="M2608 1482 c-16 -19 -6 -23 54 -25 l53 -2 1 -148 c1 -114 4 -151 14
-157 8 -5 18 -6 22 -4 4 3 8 75 8 160 0 118 3 154 13 153 6 -1 31 -1 55 0 30
1 42 5 42 16 0 8 -3 15 -7 16 -5 0 -61 1 -126 2 -86 1 -122 -2 -129 -11z"/>
<path d="M3008 1493 c-16 -4 -18 -21 -18 -173 0 -93 4 -171 8 -174 22 -13 35
15 36 80 l1 69 98 3 97 3 0 -75 c0 -77 8 -96 32 -73 10 10 13 53 12 176 -1 89
-4 165 -8 168 -3 3 -12 0 -21 -7 -11 -9 -15 -32 -15 -81 l0 -69 -99 0 -98 0 1
76 c1 42 -1 77 -4 78 -3 1 -13 1 -22 -1z"/>
<path d="M3430 1490 c-12 -8 -15 -39 -15 -174 -1 -162 4 -186 31 -168 10 7 14
352 4 352 -3 0 -12 -5 -20 -10z"/>
<path d="M4125 1484 c-70 -36 -105 -97 -101 -175 9 -141 172 -220 276 -133 27
23 30 32 30 80 l0 55 -62 -3 c-50 -2 -63 -7 -66 -20 -3 -13 6 -17 40 -20 38
-3 43 -6 46 -30 3 -21 -3 -30 -27 -42 -110 -57 -231 43 -199 164 25 89 123
128 204 81 19 -12 37 -21 39 -21 4 0 -1 50 -6 53 -43 30 -129 35 -174 11z"/>
<path d="M4482 1490 c-27 -11 -55 -71 -45 -97 12 -35 45 -61 103 -83 71 -27
95 -50 86 -84 -5 -19 -17 -28 -46 -37 -37 -11 -73 -4 -140 29 -3 1 -6 -7 -7
-19 -1 -15 9 -25 40 -40 83 -37 172 -14 193 50 6 19 9 43 6 53 -7 28 -48 64
-89 76 -89 27 -120 65 -90 106 17 23 88 24 122 2 24 -16 32 -13 31 14 -2 33
-107 53 -164 30z"/>
<path d="M3599 1483 c-7 -37 -3 -329 5 -335 25 -17 31 6 30 115 0 61 2 116 4
121 3 5 58 -46 122 -113 65 -66 120 -121 123 -121 4 0 6 77 6 170 1 163 0 170
-19 170 -22 0 -22 6 -23 -149 l-1 -104 -64 69 c-36 38 -87 92 -113 121 -54 57
-68 68 -70 56z"/>
</g>
</svg>
