<svg id="Layer_1" data-name="Layer 1" xmlns="http://www.w3.org/2000/svg" viewBox="0 0 223.46 40"><defs><style>.cls-1{fill:#00c8aa;}</style></defs><title>Artboard 1</title><path class="cls-1" d="M71.57,19.55c.21,4.36-2.94,7.59-7.59,7.59h-4.7V12H64C68.63,12,71.78,14.94,71.57,19.55ZM60.93,25.66h3A5.81,5.81,0,0,0,69.91,20q0-.21,0-.41A5.58,5.58,0,0,0,64,13.46h-3Z"/><path class="cls-1" d="M85.87,23.86H79.06l-1.42,3.36H76l6.47-15.36,6.47,15.36H87.29Zm-3.4-8.1-2.77,6.6h5.56Z"/><path class="cls-1" d="M99.78,13.47V27.12H98.13V13.47H92.95l.51-1.5H105l-.51,1.5Z"/><path class="cls-1" d="M118.85,23.86H112l-1.42,3.36H109l6.47-15.36,6.5,15.36h-1.65Zm-3.41-8.1-2.75,6.6h5.56Z"/><path class="cls-1" d="M132.74,13.47V27.12h-1.65V13.47h-5.2l.51-1.5H137.9l-.51,1.5Z"/><path class="cls-1" d="M153.79,12.4l1.65-.51V27.2h-1.65V20.46h-8.95V27.2H143.2V12.4l1.65-.51V19h8.95Z"/><path class="cls-1" d="M161.77,12.4l1.65-.51V27.2h-1.65Z"/><path class="cls-1" d="M171.4,15.77V27.11h-1.65V11.75l11.13,11.66V12.34l1.65-.51V27.34Z"/><path class="cls-1" d="M196.09,27.46A7.92,7.92,0,0,1,196,11.64a7.74,7.74,0,0,1,4.84,1.61v2.2A6.16,6.16,0,0,0,196,13.16a6.39,6.39,0,0,0,.06,12.77,6.19,6.19,0,0,0,4.08-1.57V21.57h-3.94l.52-1.52h5.1v4.89A8,8,0,0,1,196.09,27.46Z"/><path class="cls-1" d="M212.13,18.57c1.92.68,4.95,1.65,4.95,4.44s-1.82,4.4-5.56,4.4a7.25,7.25,0,0,1-4.84-1.67V23.88a9.08,9.08,0,0,0,4.84,2c2.75,0,3.81-1.18,3.81-2.86s-2.16-2.31-4-2.94-4.57-1.67-4.57-4.25c0-3,2.45-4.12,4.84-4.12a6,6,0,0,1,4.31,1.46v1.8a5.91,5.91,0,0,0-4.31-1.67c-2,0-3.08.74-3.08,2.54C208.49,17.31,210.4,17.94,212.13,18.57Z"/><path class="cls-1" d="M48.14,16.12a.44.44,0,0,0,0-.08h0V16L44.66,8.67a2.08,2.08,0,1,0-2.85-2.82L28.55-.43h-.11L16.1,1a.88.88,0,1,0-1.65.63l0,.06-3.76,3a2.08,2.08,0,0,0-3,2.89l.13.12-4.72,6.7-.13,0a.55.55,0,0,0-.55.55.54.54,0,0,0,.26.45L1.53,21.45a.2.2,0,0,0,0,.12L4.26,27.7a.2.2,0,0,0,.15.12l1.31.2a.88.88,0,0,0,.68.79V31a.2.2,0,0,0,.07.15l4.13,3.71a.2.2,0,0,0,.2,0l1.77-.61,1.72,1.22a.2.2,0,0,0,.11,0h3.45a.2.2,0,0,0,.17-.1l1.12-1.86a1.17,1.17,0,0,0,.79.09l2.24,5.73a.2.2,0,0,0,.18.13h0a.2.2,0,0,0,.17-.17l.35-3.08a.88.88,0,0,0,.6-1.43L26,32.1h0l0,0,2-2.86a.88.88,0,0,0,1.16-.47l0-.06,3.28.16.09,0,3.09-1.48.06,0,2.4-2.66a.54.54,0,0,0,.74-.46l5.9-1.76a1.35,1.35,0,1,0,1.84-1.81l1.57-4.48Zm-.48-.21L40.38,17a1.33,1.33,0,0,0-1.9-.81l-1.83-2.54A1.22,1.22,0,0,0,37,11.94l0,0,5.06-3.65a2,2,0,0,0,2.23.57Zm-23,3.58a.53.53,0,0,0-.9-.1l-2.36-.71a1.16,1.16,0,0,0-.66-1.26l1.25-3.95a.53.53,0,0,0,.24-.08l6.88,5.4a.88.88,0,0,0-.07.26Zm.27,4.79v.07l-3,1.67a2.09,2.09,0,0,0-.42-.44l.26-.39a.2.2,0,0,0,0-.13l-.36-2.91a.54.54,0,0,0,.29-.47.55.55,0,0,0-.55-.55.54.54,0,0,0-.45.26L18,20.89a.72.72,0,0,0-.07-.25l1.39-1.22a1.21,1.21,0,0,0,1.89-.36l2.36.71a.54.54,0,0,0,.52.51l1,3.58a.54.54,0,0,0-.23.43ZM20.55,30.5l-.52.85a1.18,1.18,0,0,0-1.07.15l-3.08-2.87a1.21,1.21,0,0,0,.2-.66l2-.29a2.08,2.08,0,0,0,2,1.6l.18,0ZM7.47,27.74a.88.88,0,0,0,0-.14L13.87,23a.5.5,0,0,0,.56,0l4,3.11a2.07,2.07,0,0,0-.33,1.13s0,.06,0,.09l-2,.29a1.21,1.21,0,0,0-2.36.17Zm2.65-10a2.07,2.07,0,0,0-.51-1.08l2.69-2.92A1.34,1.34,0,0,0,14,13.5l2.55,1.63a.52.52,0,0,0,0,.1.54.54,0,0,0,0,.22l-1.3,1.3a1.1,1.1,0,0,0-1.73.77ZM21.5,13.28l.07.07-1.25,4a1.21,1.21,0,0,0-1.23,1.81l-1.4,1.23a.73.73,0,0,0-.68-.06l-1.5-1.89A1.1,1.1,0,0,0,15.59,17l1.3-1.3a.54.54,0,0,0,.77-.5s0,0,0,0Zm8.45-7a1.22,1.22,0,0,0,.93-.54l3,1.34a.87.87,0,0,0,0,.1.88.88,0,0,0,.15.5L30.6,10.17a2.08,2.08,0,0,0-1-.69Zm11.61.94a2.06,2.06,0,0,0,.28.76l-5.1,3.67a1.21,1.21,0,0,0-1.91.64L31,11.59s0-.09,0-.13a2.06,2.06,0,0,0-.25-1l3.52-2.58a.87.87,0,0,0,1.27-.48ZM37.75,17.35v.06l-7.08,1.4-.07-.13,4.72-5.07a1.19,1.19,0,0,0,1,.17l1.89,2.62a1.34,1.34,0,0,0-.41,1ZM29,13.55A2.08,2.08,0,0,0,31,12l3.8.67a1.21,1.21,0,0,0,.25.68l-4.73,5.08a.86.86,0,0,0-1,.08l-6.89-5.4a.53.53,0,0,0,0-.13L27,12.09a2.08,2.08,0,0,0,2,1.46Zm-8.38,8.22a.53.53,0,0,0,.39.42L21.34,25l-.22.34a2,2,0,0,0-2.48.4l-4-3.14a.52.52,0,0,0,0-.1s0,0,0,0l2.1-1A.73.73,0,0,0,18,21.28Zm-5.82-3a1.1,1.1,0,0,0,.43-.13l1.5,1.89a.71.71,0,0,0-.13.56l-2.09,1,0,0Zm15.71,3.85a.88.88,0,0,0-.42-.23V20a.88.88,0,0,0,.69-.84l7.08-1.4,0,.09-3.23,2ZM41.64,6.19a2.07,2.07,0,0,0-.11.6L35.65,7A.88.88,0,0,0,34,6.68L31,5.35a1.18,1.18,0,0,0-1.31-1.51L28.76.1ZM28.46.51l.89,3.43a1.21,1.21,0,0,0,.2,2.28L29.2,9.4l-.22,0a2.09,2.09,0,0,0-2.09,2.08h0a2.06,2.06,0,0,0,0,.23l-4.53.87,4-5.18.15,0a.55.55,0,0,0,.55-.55.54.54,0,0,0-.23-.43ZM16.15,1.4,28.2,0,26.46,6.34a.54.54,0,0,0-.49.54.53.53,0,0,0,.09.28l-4,5.19-.34-3.85a.54.54,0,0,0-.44-1L16,1.81a.88.88,0,0,0,.14-.41Zm-.41.68L21,7.77a.52.52,0,0,0,.22.71l.12,0,.34,3.93a.54.54,0,0,0-.3.45l-3.9,1.92a.54.54,0,0,0-.18-.11l-.09-4A.89.89,0,0,0,17.05,9h0L15.65,2.12Zm-1-.07a.88.88,0,0,0,.55.2l1.36,6.86a.88.88,0,0,0,.18,1.62l.09,4-.1.07-2.54-1.63a1.35,1.35,0,0,0-1.74-1.82l-2.1-3.54A2.07,2.07,0,0,0,11,5ZM9.22,8.21a2.07,2.07,0,0,0,.87-.2l2.1,3.55a1.33,1.33,0,0,0-.2,1.87l0,0L9.31,16.37a2.06,2.06,0,0,0-2.89.37l0,0L3.52,15a.52.52,0,0,0,0-.09.53.53,0,0,0-.1-.3L8.17,7.92a2.07,2.07,0,0,0,1,.29ZM1.93,21.46l1.17-6a.53.53,0,0,0,.22-.1L6.2,17.11a2.08,2.08,0,1,0,3.94,1l3.47-.19a1.11,1.11,0,0,0,.77.81L14.05,22a.52.52,0,0,0-.44.71L7.19,27.28a.88.88,0,0,0-1.41.34l-1.21-.18Zm8.85,13-4-3.57V28.81a.89.89,0,0,0,.66-.66h6.2a1.21,1.21,0,0,0,.6.86l-1.82,4.92Zm6.95.66H14.46L12.83,34l1.8-4.86.23,0a1.21,1.21,0,0,0,.74-.26l3.07,2.86a1.21,1.21,0,0,0,.13,1.6Zm5.44-.54a.88.88,0,1,0-.68,1.63l-.26,2.28-1.95-5a1.22,1.22,0,0,0,.59-1v0l2.71-.26,1.8,0Zm2.56-2.85-2.16,0-2.77.27a1.22,1.22,0,0,0-.41-.55l.54-.88a.2.2,0,0,0,0-.14l-.24-1.31a2.07,2.07,0,0,0,1.35-2.83l3-1.67a.55.55,0,1,0,.4-1h0l-1-3.6a.53.53,0,0,0,.17-.26L29,19.45a.88.88,0,0,0,.64.58v2.35A.88.88,0,0,0,29.42,24l-1.07,3.5h0A.88.88,0,0,0,27.66,29Zm13-8a.54.54,0,0,0-.43-.22.55.55,0,0,0-.55.55.54.54,0,0,0,.06.23L35.42,27l-3,1.44-3.2-.15a.88.88,0,0,0-.47-.67l1.07-3.49h.06A.88.88,0,0,0,30.69,23l4.13-2.69,3.25-2A1.33,1.33,0,0,0,40,18.4l.14-.14,4.57,3a1.32,1.32,0,0,0-.08.77Zm7.2-3.36a1.34,1.34,0,0,0-1,.5l-4.56-3a1.34,1.34,0,0,0,.13-.57l7.21-1L46.2,20.46l-.28,0Z"/></svg>