<?xml version="1.0" encoding="utf-8"?>
<!-- Generator: Adobe Illustrator 21.0.2, SVG Export Plug-In . SVG Version: 6.00 Build 0)  -->
<svg version="1.1" id="Layer_1" xmlns="http://www.w3.org/2000/svg" xmlns:xlink="http://www.w3.org/1999/xlink" x="0px" y="0px"
	 viewBox="0 0 566.9 566.9" style="enable-background:new 0 0 566.9 566.9;" xml:space="preserve">
<style type="text/css">
	.st0{fill:#FFFFFF;}
</style>
<title>Artboard 1</title>
<g id="XMLID_1_">
	<g>
		<path class="st0" d="M464.5,420.1v4.1c-2.6-2.6-6.1-3.9-9.8-3.8c-4.5,0-7,1.7-7,5.8c0,3.4,4.3,4.9,8.3,6.3
			c4.4,1.5,11.2,3.8,11.2,10.1c0,6.6-4.1,10-12.6,10c-4,0.1-7.9-1.2-11-3.8v-4.2c2.2,1.9,7.3,4.5,11,4.5c6.2,0,8.6-2.7,8.6-6.5
			c0-3.8-4.9-5.2-9.1-6.7c-3.9-1.3-10.4-3.8-10.4-9.7c0-6.9,5.6-9.4,11-9.4C459.7,416.8,462.9,418.5,464.5,420.1z"/>
		<path class="st0" d="M432.6,436v11.1c-3.4,3.6-8.1,5.7-13.1,5.7c-9.9,0-18-8-18.1-17.9c0-9.9,8-18,17.9-18.1c4-0.1,7.9,1.2,11,3.6
			v5c-2.7-3.3-6.7-5.2-11-5.2c-7.9,0-14,6.6-14,14.5c-0.1,7.9,6.2,14.4,14.1,14.5c3.4,0,6.7-1.3,9.3-3.6v-6.3h-8.9l1.2-3.4H432.6z"
			/>
		<path class="st0" d="M419.1,275.1l0.9,2.9l-44.9,13.4c0,0.4-0.1,0.9-0.3,1.3c-0.9,2.1-3.3,3.1-5.4,2.2l-18.1,20.1l-2.2-2
			l18.1-20.2c-0.3-0.6-0.4-1.2-0.4-1.8c0-2.3,1.9-4.2,4.2-4.2c1.3,0,2.5,0.6,3.2,1.7L419.1,275.1z"/>
		<polygon class="st0" points="388.7,417.4 388.7,452.6 363.4,426.3 363.4,452 359.6,452 359.6,417.2 384.9,443.6 384.9,418.5 		"/>
		<polygon class="st0" points="345.3,417.3 345.3,452 341.5,452 341.5,418.4 		"/>
		<polygon class="st0" points="327.1,417.3 327.1,452 323.4,452 323.4,436.7 303.1,436.7 303.1,452 299.3,452 299.3,418.4 
			303.1,417.3 303.1,433.3 323.4,433.3 323.4,418.4 		"/>
		<path class="st0" d="M309.7,136.5c4.8,1.5,7.4,6.5,5.9,11.2l-1.2,2.7c-1.6,2.4-4.2,3.9-7.1,4.1l-2.8,24.4l-3-0.3l2.7-24.2
			c-2.7-0.7-5-2.6-6.1-5.1c-2.1-4.6-0.1-10.1,4.6-12.3l0,0l2.9-0.8C307,136,308.4,136.1,309.7,136.5z"/>
		<path class="st0" d="M298.1,317.6c2,1,3.3,2.9,3.6,5.1l24.4,1.2l23-11l2.2,2l-0.2,0.2c-0.1,0.1-0.3,0.3-0.5,0.3L327,326.8
			c-0.2,0.1-0.5,0.1-0.7,0.1l-25-1.2c-0.1,0.2-0.1,0.3-0.2,0.5c-1.4,3.4-5.4,5-8.8,3.6l-2.4-1.8c-1.1-1.2-1.6-2.8-1.6-4.4
			c0-3.7,3-6.7,6.7-6.7h0.2l0-0.2L298.1,317.6z"/>
		<path class="st0" d="M275.1,349.2l14.8-21.2l2.4,1.8l-15.2,21.8l-0.1,0.1l-19,21.2c0.8,1,1.3,2.3,1.5,3.6c0.3,3.7-2.4,6.9-6,7.3
			l-2.6,23.5c-0.1,0.7-0.6,1.2-1.3,1.3h-0.2c-0.6,0-1.2-0.4-1.4-1l-2.2-5.7l2.8-1.1l2-17.4c-0.3-0.1-0.6-0.2-0.8-0.4
			c-3.3-1.7-4.7-5.7-3-9c1.7-3.3,5.7-4.7,9.1-3l16.8-18.7l-13.7,0.2l-20.7,2l-0.3-3l20.9-2.1L275.1,349.2z"/>
		<polygon class="st0" points="287.3,417.7 286.1,421.1 275.6,421.1 275.6,452.1 271.8,452.1 271.8,421.1 260,421.1 261.1,417.7 		
			"/>
		<path class="st0" d="M386.9,236.4l55.5-8.1l-25.6-54c-6,2.2-12.8,0.5-17-4.3l-38.6,27.8l0.1,0.2c0,0,0,0,0,0
			c2.8,4.3,1.5,10.1-2.8,12.8l13.9,19.4c0.6-0.3,1.3-0.6,1.9-0.8C379.8,227.9,385.4,231,386.9,236.4z M429.2,262.8
			c0.7,0,1.4,0.1,2.1,0.2l11.1-31.7l-55,8c0,1.5-0.4,3-1,4.3l34.8,22.9C423.2,264.2,426.1,262.8,429.2,262.8L429.2,262.8z
			 M308.2,259.8v17.8c1.2,0.3,2.3,0.9,3.2,1.7l31.6-20.4l24.7-15.5c-0.1-0.2-0.2-0.5-0.2-0.7l-54,10.7
			C313.4,256.5,311.2,259.1,308.2,259.8z M348.3,210.8l-36,38.7c0.2,0.3,0.4,0.7,0.6,1l54-10.7v-0.4c0-2.8,1.2-5.4,3.2-7.3l-14.4-20
			C353.1,212.7,350.4,212.2,348.3,210.8z M395.9,161.8l-45.4,1.9c-0.1,0.4-0.3,0.9-0.6,1.2c-1.9,3.2-6,4.2-9.1,2.4L314,187
			c1.2,2.2,1.8,4.8,1.9,7.3c0,0.3-0.1,0.7-0.1,1l28.8,5.1c0.3-1.2,0.9-2.3,1.6-3.2c3.1-4,8.9-4.7,12.9-1.6l38.9-28
			C397,165.8,396.2,163.8,395.9,161.8z M396.6,154.2l-98.3-46.5l7.4,28.5l-2.9,0.8l-6.8-26.1l-12.3,45.2c1.1,0.8,1.7,2,1.7,3.3
			c0,2.3-1.9,4.2-4.2,4.2c-0.4,0-0.8-0.1-1.1-0.2l-30.4,39.5l34.5-6.7c-0.1-0.6-0.1-1.2-0.2-1.8c0-0.1,0-0.1,0-0.1
			c0-8.8,7.1-15.9,15.9-15.9c0.6,0,1.1,0.1,1.7,0.2l3,0.3l0,0.3c3,0.9,5.7,2.8,7.7,5.3l26.3-19.3c-0.8-1.1-1.1-2.4-1.1-3.8
			c0-0.2,0-0.5,0.1-0.8l-23-10.2l1.2-2.7l22.8,10.1c1.1-1.7,2.9-2.9,4.9-3.1c3.7-0.4,7,2.2,7.5,5.9l44.9-1.9
			C395.8,157.2,396,155.7,396.6,154.2z M310.1,247.4l36.1-38.7c-1.1-1.5-1.8-3.3-1.9-5.2l-29-5.1c-1.8,7-8.1,11.9-15.4,11.9v0
			c-7,0-13.1-4.5-15.1-11.2l-34.6,6.7c0,0.3-0.1,0.7-0.2,1l52.5,41.1C304.7,246.2,307.7,245.9,310.1,247.4z M201.1,120.7
			L201.1,120.7l-2.1,2.1c-0.2,0.1-0.4,0.2-0.6,0.3l10.3,52.2l-2.9,0.6l-10.3-52.1c-1.5,0-3-0.6-4.2-1.5l-28.7,22.6l-1.9-2.4
			l28.7-22.7c-0.1-0.1-0.1-0.3-0.2-0.5c0-0.1-0.1-0.2-0.1-0.3c-1.2-3.5,0.6-7.4,4.1-8.6c3.5-1.2,7.4,0.6,8.6,4.1l94.1-11.1h0.2
			c0.1,0,0.1,0.1,0.2,0.1c0.1,0,0.3,0,0.4,0.1l101.1,47.9c1.4-2.5,3.4-4.5,5.9-5.9c7.6-4.4,17.3-1.8,21.7,5.8
			c4.4,7.6,1.8,17.3-5.8,21.7l26.5,55.8c0,0.1,0,0.1,0,0.2c0,0.1,0,0.1,0.1,0.2v0.1c0,0.2,0,0.4,0,0.6l0,0.1l-12,34.2
			c1.8,1,3.2,2.4,4.2,4.2c2.6,5,0.7,11.2-4.3,13.9c-5,2.6-11.2,0.7-13.9-4.3l-0.1,0l-0.9-2.9c-0.4-2-0.2-4,0.6-5.9l-34.9-23
			c-0.3,0.4-0.7,0.8-1.1,1.1c-4.3,3.6-10.7,3-14.3-1.3l-24.8,15.5L313,282c0.3,0.7,0.4,1.5,0.4,2.3c0,3.7-3,6.7-6.7,6.7h-0.5
			l-8.1,26.6l-2.9-0.9l8.1-26.5c-1.7-0.9-2.8-2.5-3.2-4.4c-0.8-3.6,1.5-7.2,5.1-8v-18c-2.3-0.5-4.1-2.2-4.9-4.4l-33.4,3.2l-0.2-2.9
			l33.4-3.2c0.1-0.7,0.3-1.4,0.6-2l-52.5-41.2c-0.5,0.3-1.2,0.5-1.8,0.6l-9.6,30.1l-2.8-0.9l9.6-30.2c-0.2-0.2-0.4-0.4-0.6-0.6
			l-1.3-2.6l0.4-0.2c0.1-1.5,1-2.8,2.3-3.4l-2.6-30l2.9-0.2l2.6,29.4l30.5-39.6c-0.4-0.6-0.6-1.4-0.6-2.1c0-2.1,1.6-3.9,3.7-4.1
			l13.2-48.5l-91.9,10.9l0,0C202.1,118.8,201.7,119.8,201.1,120.7z"/>
		<path class="st0" d="M236.2,417.1L251,452h-3.8l-3.2-7.6h-15.5l-3.2,7.6h-3.8L236.2,417.1z M242.6,441l-6.4-15l-6.2,15H242.6z"/>
		<path class="st0" d="M270.3,295.3L247.2,308l-1.4-2.6l23.1-12.7c0-0.2-0.1-0.3-0.1-0.5l0,0c0-1.3,0.7-2.5,1.7-3.3l-7.6-27.3
			c-2.1-0.1-3.8-1.8-3.9-3.9l0.9-2.8c0.4-0.5,0.9-0.9,1.5-1.2c2-0.9,4.5-0.1,5.4,1.9l0.2,2.9c-0.2,0.8-0.7,1.5-1.3,2l7.7,27.5
			c1,0.1,1.9,0.4,2.6,1.1c1.7,1.6,1.8,4.2,0.3,5.9C274.6,296.7,272,296.8,270.3,295.3z"/>
		<path class="st0" d="M246.7,166.3c0.9,2.1,0,4.5-2.1,5.5l-2.9,0.2c-0.3-0.1-0.6-0.2-0.9-0.3c-1.9-1-2.7-3.5-1.7-5.4L199,122.8
			l2.2-2l40.1,43.4C243.3,163.2,245.8,164.2,246.7,166.3z"/>
		<path class="st0" d="M241.8,249.5l18,5.4l-0.9,2.8l-18-5.4c-0.4,0.8-0.8,1.4-1.4,2.1c-3.4,3.8-9.2,4.1-13,0.7l-1.9-2.2l0.1-0.1
			c-1.1-1.8-1.5-4-1.2-6.1c0.8-5,5.5-8.5,10.5-7.7l2.8,0.9C240.4,241.6,242.5,245.5,241.8,249.5z"/>
		<path class="st0" d="M221.1,303.4c4.9-5.2,12.7-6.5,18.9-3.1l1.7-2.6l-2.7-21.6c-1.5-0.4-2.7-1.6-3-3.2l-20.1-3.8
			c-0.3,0.7-0.8,1.2-1.3,1.7c-2.3,2-5.8,1.8-7.8-0.5l-16,7.9c0,0.1,0.1,0.2,0.1,0.4c0,0.3-0.1,0.5-0.2,0.8L221.1,303.4z M182.8,280
			c-0.1-0.3-0.2-0.7-0.2-1.1c-0.2-2.2,1.4-4.2,3.6-4.4l2.9,0.3l0,0.4l0.4,0.2l15.9-7.9c-0.3-1.5,0.1-3.1,1-4.3l2.4-1.8
			c1.7-0.7,3.6-0.5,5.2,0.5l10.6-9.3l1.9,2.2l-10.6,9.3c0.3,0.6,0.4,1.2,0.5,1.9l20.2,3.8c0.7-1.2,2-2,3.5-2c0,0,0.1,0,0.1,0
			c2.3,0,4.2,1.9,4.1,4.2c0,1.5-0.9,2.9-2.2,3.6l2.8,22.2c0,0.4-0.1,0.7-0.2,1l-2,3c1.2,1,2.3,2.1,3.2,3.4l1.4,2.6
			c0.3,0.7,0.6,1.4,0.8,2.1c2.3,8.4-2.6,17.1-11,19.5l1.8,10c0.1,0.4,0,0.7-0.2,1.1l-4.1,6.7c1.4,1.1,2.5,2.5,3.1,4.2l0.2,0l0.3,3
			v0.3c0,3.2-1.7,6.2-4.5,7.9l14.9,38.1l-2.8,1.1l-14.8-38c-2,0.5-4.1,0.2-6-0.7l-2.6-1.5l0.1-0.2c-3.4-3.2-3.8-8.4-1-12.2
			L198,327.4l2-2.2l23.5,21.9c2.4-1.7,5.4-2.1,8.2-1.2l4-6.5l-1.8-9.5c-0.4,0-0.9,0.1-1.3,0.1c-7.4,0-13.7-5.1-15.4-12.2l-0.4-3
			c0-0.2-0.1-0.5-0.1-0.7c0-3,0.9-6,2.6-8.6L189,282c-1.2,1-2.9,1.1-4.3,0.3l-0.2,0.2L182.8,280z"/>
		<path class="st0" d="M172.8,211.5L172.8,211.5l-2.2-2l-0.1-0.2c-3.5-4.4-2.9-10.7,1.5-14.2l-16-27.1c-2.1,1-4.3,1.5-6.6,1.5h0
			c-2.8,0-5.6-0.8-8-2.2l-36,51.1c0.5,0.7,0.7,1.4,0.8,2.2c0,0.2-0.1,0.5-0.1,0.7l-1.6,2.5c-0.5,0.4-1.1,0.6-1.7,0.7l-8.9,46
			l20.1,45.6l-2.7,1.2l-20.4-46c-0.1-0.3-0.2-0.6-0.1-0.9l9-46.4c-1.2-0.7-2-2-2-3.5c0-2.3,1.9-4.2,4.2-4.2c0.3,0,0.7,0.1,1,0.2
			l36-51.1c-0.3-0.3-0.7-0.6-1-0.9c-6-6.3-5.8-16.2,0.4-22.3c6.3-6.1,16.3-6,22.4,0.2l0,0l1.9,2.4c4.7,7.1,2.9,16.7-4.1,21.6l16,27
			c2.7-1.1,5.7-1.1,8.4,0.2c5.1,2.4,7.3,8.5,4.9,13.7l19.3,12.4c0.2-0.2,0.5-0.4,0.8-0.5l-0.7-30.8c-1.8-0.5-3.3-1.7-4.1-3.3
			c-1.8-3.3-0.5-7.3,2.8-9.1l-0.1-0.2l2.9-0.6h0.3c3.2,0,6,2.3,6.6,5.5c0.7,3.7-1.8,7.2-5.4,7.9l0.7,30.6c0.5,0.2,1,0.5,1.4,0.8
			l29.4-14.5l1.3,2.6l-29.4,14.6c0,0.1,0.1,0.2,0.1,0.4c0,0.6-0.1,1.2-0.4,1.7c-0.9,2.1-3.4,3-5.5,2.1l-9.9,9.9
			c2.2,3.2,2,7.5-0.6,10.4l11.4,14.4l-2.4,1.8L194.9,249c-1,0.6-2.1,0.9-3.3,1l-2.5,24.9l-2.9-0.3l2.5-24.9
			c-2.9-0.8-5.2-3.2-5.9-6.1h0l-0.2-3c0.2-1.4,0.7-2.7,1.5-3.8c2.7-3.8,7.9-4.7,11.7-2.1l9.9-9.9c-0.2-0.5-0.4-1.1-0.4-1.7
			c0-0.3,0.1-0.5,0.2-0.8L186,209.9C182.6,213.6,177,214.4,172.8,211.5z"/>
		<polygon class="st0" points="212.4,417.7 211.3,421.1 200.7,421.1 200.7,452.1 196.9,452.1 196.9,421.1 185.2,421.1 186.3,417.7 
					"/>
		<path class="st0" d="M161.4,417.1l14.7,34.9h-3.8l-3.2-7.6h-15.5l-3.2,7.6h-3.8L161.4,417.1z M167.7,441l-6.3-15l-6.3,15H167.7z"
			/>
		<path class="st0" d="M152.2,233.8c2.1,2.3,3.4,5.2,3.9,8.2l26.4-1.4l0.2,3l-26.4,1.5c-0.1,2.3-0.7,4.5-1.7,6.5
			c-3.9,7.9-13.4,11-21.3,7.1c-7.8-3.9-11-13.4-7.1-21.3l-21.9-13.5l1.6-2.5l21.9,13.5l0.2-0.3c5.3-6.8,15.1-8.1,22-2.8l20.5-22.2
			l2.2,2L152.2,233.8z"/>
		<path class="st0" d="M119.3,417.5c10.6,0,17.7,6.8,17.3,17.3c0.5,9.9-6.7,17.2-17.3,17.2h-10.7v-34.5H119.3z M132.8,434.8
			c0.5-7.8-5-13.8-13.5-13.8h-6.9l0,27.7h6.9c7.3,0.1,13.3-5.6,13.5-12.9c0,0,0,0,0,0C132.8,435.4,132.8,435.1,132.8,434.8z"/>
		<path class="st0" d="M161.2,370.1l12.7-4.4l13.9-37.5c-2.4-1.4-4.1-3.8-4.6-6.5h-47.3c-0.6,2.5-2.5,4.5-5.1,5.1v16.2L161.2,370.1z
			 M113.8,316.3l9.2,1.4c0.3-0.8,0.7-1.5,1.3-2.1c2.5-2.8,6.7-3,9.5-0.5l49-35l1.7,2.4l-48.9,35c0.1,0.4,0.3,0.7,0.3,1.1l47.2,0
			c0.6-3.5,3.1-6.4,6.4-7.4c4.9-1.5,10.1,1.2,11.6,6.1l15.6-2.2l0.4,3l-15.6,2.2c0,1.8-0.6,3.5-1.6,5l-2,2.2c-1.6,1.3-3.6,2-5.7,2
			c-0.6,0-1.2-0.1-1.8-0.2l-13.7,37.1l12.4,8.8h24.9l8.1-13.5l2.6,1.5l-8.5,14.2c-0.3,0.5-0.8,0.7-1.3,0.7h-26.3
			c-0.3,0-0.6-0.1-0.9-0.3l-13.1-9.3l-13.5,4.7c-0.5,0.2-1.1,0.1-1.5-0.3l-31.5-28.3c-0.3-0.3-0.5-0.7-0.5-1.1v-16.9
			c-2.9-0.7-5-3.1-5.2-6.1l-10-1.5c-0.5-0.1-0.9-0.4-1.2-0.9l-0.3-0.8L113.8,316.3z"/>
	</g>
	<g>
	</g>
</g>
</svg>
