<?xml version="1.0" encoding="utf-8"?>
<!-- Generator: Adobe Illustrator 21.0.2, SVG Export Plug-In . SVG Version: 6.00 Build 0)  -->
<svg version="1.1" id="Layer_1" xmlns="http://www.w3.org/2000/svg" xmlns:xlink="http://www.w3.org/1999/xlink" x="0px" y="0px"
	 viewBox="0 0 223.5 40" style="enable-background:new 0 0 223.5 40;" xml:space="preserve">
<style type="text/css">
	.st0{fill:#FFFFFF;}
</style>
<title>Artboard 1</title>
<g id="XMLID_1_">
	<g>
		<path class="st0" d="M217.1,23c0,2.8-1.8,4.4-5.6,4.4c-1.8,0-3.5-0.5-4.8-1.7v-1.9c1.4,1.1,3.1,1.8,4.8,2c2.8,0,3.8-1.2,3.8-2.9
			s-2.2-2.3-4-2.9s-4.6-1.7-4.6-4.2c0-3,2.5-4.1,4.8-4.1c1.6-0.1,3.1,0.4,4.3,1.5V15c-1.2-1.1-2.7-1.7-4.3-1.7c-2,0-3.1,0.7-3.1,2.5
			c0,1.5,1.9,2.1,3.6,2.7C214.1,19.2,217.1,20.2,217.1,23z"/>
		<path class="st0" d="M201.8,24.9c-1.5,1.6-3.6,2.5-5.7,2.5c-4.4-0.2-7.8-3.9-7.6-8.3c0.2-4.1,3.4-7.3,7.5-7.6
			c1.8,0,3.4,0.5,4.8,1.6v2.2c-1.2-1.5-3-2.3-4.8-2.3c-3.5,0.2-6.3,3.1-6.1,6.7c0.1,3.3,2.8,6,6.2,6.1c1.5,0,3-0.6,4.1-1.6v-2.8
			h-3.9l0.5-1.5h5.1V24.9z"/>
		<polygon class="st0" points="180.9,23.4 180.9,12.3 182.5,11.8 182.5,27.3 171.4,15.8 171.4,27.1 169.8,27.1 169.8,11.8 		"/>
		<polygon class="st0" points="163.4,11.9 163.4,27.2 161.8,27.2 161.8,12.4 		"/>
		<polygon class="st0" points="153.8,19 153.8,12.4 155.4,11.9 155.4,27.2 153.8,27.2 153.8,20.5 144.8,20.5 144.8,27.2 143.2,27.2 
			143.2,12.4 144.9,11.9 144.9,19 		"/>
		<polygon class="st0" points="132.7,13.5 132.7,27.1 131.1,27.1 131.1,13.5 125.9,13.5 126.4,12 137.9,12 137.4,13.5 		"/>
		<path class="st0" d="M115.4,15.8l-2.8,6.6h5.6L115.4,15.8z M109,27.2l6.5-15.4l6.5,15.4h-1.7l-1.5-3.4H112l-1.4,3.4H109z"/>
		<polygon class="st0" points="99.8,13.5 99.8,27.1 98.1,27.1 98.1,13.5 92.9,13.5 93.5,12 105,12 104.5,13.5 		"/>
		<path class="st0" d="M85.3,22.4l-2.8-6.6l-2.8,6.6H85.3z M82.5,11.9l6.5,15.4h-1.7l-1.4-3.4h-6.8l-1.4,3.4H76L82.5,11.9z"/>
		<path class="st0" d="M69.9,19.6c0.3-3.1-1.9-5.8-5-6.1c-0.3,0-0.6,0-0.9,0h-3l-0.1,12.2h3c3.2,0.1,5.9-2.4,6-5.6c0,0,0,0,0,0
			C69.9,19.9,69.9,19.7,69.9,19.6z M64,12c4.6,0,7.8,2.9,7.6,7.5c0.2,4.4-2.9,7.6-7.6,7.6h-4.7V12H64z"/>
		<path class="st0" d="M45.9,20.5h0.3l1.5-4.2l-7.2,1c0,0.2,0,0.4-0.1,0.6l4.6,3C45.2,20.6,45.5,20.4,45.9,20.5L45.9,20.5z
			 M38.7,16.1c0.7-0.2,1.4,0.2,1.6,0.9l7.3-1.1l-3.4-7.1c-0.8,0.3-1.7,0.1-2.2-0.6L37,11.9c0,0,0,0,0,0c0.4,0.6,0.2,1.3-0.4,1.7
			l1.8,2.5C38.6,16.1,38.7,16.1,38.7,16.1z M30.7,18.8l7.1-1.4v-0.1l0,0c0-0.4,0.1-0.7,0.4-1l-1.9-2.6c-0.3,0.1-0.7,0-1-0.2
			l-4.7,5.1L30.7,18.8z M35.5,7.6c-0.2,0.4-0.8,0.5-1.2,0.3l-3.5,2.6c0.2,0.3,0.2,0.6,0.2,1c0,0,0,0.1,0,0.1l3.8,0.7
			c0-0.1,0.1-0.3,0.2-0.4c0.4-0.5,1.2-0.6,1.7-0.2L41.8,8c-0.1-0.2-0.2-0.5-0.3-0.8l-6,0.2C35.5,7.5,35.5,7.5,35.5,7.6z M34.6,19.9
			l3.2-2v-0.1l-7.1,1.4c0,0.4-0.3,0.8-0.7,0.8v2.4c0.2,0,0.3,0.1,0.4,0.2L34.6,19.9z M28.8,0.1l0.9,3.7c0.2,0,0.4,0,0.5,0
			c0.6,0.2,1,0.8,0.8,1.5l3,1.3c0.1-0.3,0.4-0.4,0.7-0.5c0.5,0,0.9,0.3,1,0.8l5.9-0.2c0-0.2,0-0.4,0.1-0.6L28.8,0.1z M30,6.3
			l-0.4,3.2c0.4,0.1,0.7,0.4,1,0.7L34,7.7c-0.1-0.1-0.1-0.3-0.1-0.5c0,0,0-0.1,0-0.1l-3-1.3C30.7,6.1,30.3,6.2,30,6.3z M29.2,28.3
			l3.2,0.1l3-1.4l2.4-2.7c0-0.1-0.1-0.2-0.1-0.2c0-0.3,0.2-0.5,0.5-0.5c0.2,0,0.3,0.1,0.4,0.2l5.9-1.7c0-0.3,0-0.5,0.1-0.8l-4.6-3
			L40,18.4c0,0,0,0,0,0.1c-0.6,0.5-1.4,0.4-1.9-0.1l-3.2,2L30.7,23c0,0.1,0,0.1,0,0.2c0,0.5-0.4,0.9-0.9,0.9h-0.1l-1.1,3.5
			C29,27.8,29.2,28,29.2,28.3z M22.4,12.6l4.5-0.9c0-0.1,0-0.1,0-0.2c0-1.1,0.9-2.1,2.1-2.1h0.2l0.3-3.2c-0.4-0.1-0.7-0.3-0.8-0.7
			c-0.3-0.6,0-1.3,0.6-1.6l-0.9-3.4l-1.6,5.9c0.1,0.1,0.2,0.3,0.2,0.4c0,0.3-0.2,0.6-0.5,0.6h-0.1L22.4,12.6z M22.4,13.1l6.9,5.4
			c0.3-0.2,0.7-0.3,1-0.1l4.7-5.1c-0.1-0.2-0.2-0.4-0.2-0.7L31,12c-0.2,0.9-1.1,1.5-2,1.6c-0.9,0-1.7-0.6-2-1.5L22.4,13
			C22.4,13,22.4,13.1,22.4,13.1z M20.4,31.5c0.2,0.1,0.3,0.3,0.4,0.5l2.8-0.3h2.2l1.9-2.7c-0.2-0.2-0.3-0.4-0.3-0.7
			c0-0.5,0.4-0.8,0.9-0.8c0,0,0,0,0.1,0l1.1-3.5c-0.2-0.1-0.4-0.3-0.4-0.5c-0.1-0.5,0.2-1,0.6-1.1V20c-0.3-0.1-0.5-0.3-0.6-0.6
			l-4.4,0.3c0,0.1-0.1,0.2-0.2,0.3l1,3.6c0.1,0,0.1,0,0.2,0.1c0.2,0.2,0.3,0.5,0.1,0.8c-0.2,0.2-0.5,0.3-0.8,0.2l-3,1.7
			c0,0.1,0.1,0.2,0.1,0.3c0.3,1.1-0.3,2.2-1.4,2.5l0.2,1.3c0,0,0,0.1,0,0.1L20.4,31.5z M20.3,33.5l1.9,5l0.3-2.3
			C22,36,21.8,35.5,22,35c0.2-0.5,0.7-0.7,1.2-0.5l2.2-2.4h-1.8l-2.7,0.3C20.9,32.9,20.6,33.3,20.3,33.5z M20.7,17.4
			c0.5,0.2,0.8,0.7,0.7,1.3l2.4,0.7c0-0.1,0.1-0.1,0.2-0.2c0.3-0.1,0.6,0,0.7,0.3L29,19c0-0.1,0-0.2,0.1-0.3l-6.9-5.4
			c-0.1,0-0.1,0.1-0.2,0.1L20.7,17.4z M18,20.9l2.7,0.5c0.1-0.2,0.3-0.3,0.4-0.3c0.3,0,0.6,0.2,0.6,0.6c0,0.2-0.1,0.4-0.3,0.5
			l0.4,2.9c0,0,0,0.1,0,0.1l-0.3,0.4c0.2,0.1,0.3,0.3,0.4,0.4l3-1.7v-0.1l-0.1,0c0-0.2,0.1-0.3,0.2-0.4l-1-3.6
			c-0.3,0-0.5-0.2-0.5-0.5l-2.4-0.7c0,0.1-0.1,0.2-0.2,0.3c-0.5,0.5-1.2,0.5-1.7,0.1l-1.4,1.2C18,20.7,18,20.8,18,20.9z M15.6,17
			c0.3,0.4,0.3,1-0.1,1.4l1.5,1.9c0.2-0.1,0.5-0.1,0.7,0.1l1.4-1.2c-0.1-0.2-0.2-0.5-0.1-0.8c0.1-0.7,0.7-1.1,1.4-1l1.2-4l-0.1-0.1
			l-3.8,1.9c0,0.1,0,0.2,0,0.2c-0.1,0.3-0.5,0.4-0.7,0.3L15.6,17z M21,7.8l-5.3-5.7l-0.1,0L17,9c0.3,0.1,0.5,0.2,0.6,0.5
			c0.2,0.4,0,1-0.4,1.2l0.1,4c0.1,0,0.1,0.1,0.2,0.1l3.9-1.9c0-0.2,0.1-0.4,0.3-0.4l-0.3-3.9h-0.1c0,0,0,0,0,0C21,8.3,20.9,8,21,7.8
			z M18.1,27.7l-2,0.3c0,0.2-0.1,0.5-0.2,0.7l3.1,2.9c0.3-0.2,0.7-0.3,1.1-0.1l0.5-0.9l-0.3-1.2h-0.2C19.1,29.3,18.3,28.6,18.1,27.7
			z M28.2,0L16.1,1.4h0c0,0.1-0.1,0.3-0.1,0.4l5.3,5.7c0.3-0.1,0.6,0,0.7,0.3s0,0.6-0.3,0.7l0.3,3.9l4-5.2C26,7.1,26,7,26,6.9
			c0-0.3,0.2-0.5,0.5-0.5L28.2,0z M16.7,21.5l-2.1,1c0,0,0,0.1,0,0.1l4,3.1c0.6-0.7,1.7-0.9,2.5-0.4l0.2-0.3L21,22.2
			c-0.2-0.1-0.4-0.2-0.4-0.4L18,21.3c0,0.1-0.1,0.2-0.2,0.3C17.5,21.9,17,21.8,16.7,21.5z M14.5,22.1l2.1-1c0-0.2,0-0.4,0.1-0.6
			l-1.5-1.9c-0.1,0.1-0.3,0.1-0.4,0.1L14.5,22.1z M14.6,29.1L12.8,34l1.6,1.1h3.3l1.1-1.8c-0.4-0.4-0.5-1.1-0.1-1.6l-3.1-2.9
			c-0.2,0.2-0.5,0.3-0.7,0.3H14.6z M13.6,11.3c0.7,0.3,1,1.1,0.6,1.8l2.5,1.6l0.1-0.1l-0.1-4c-0.2-0.1-0.4-0.2-0.5-0.4
			c-0.2-0.4-0.1-1,0.4-1.2l-1.4-6.9c-0.2,0-0.4-0.1-0.6-0.2L11,5c0.6,0.9,0.3,2.1-0.6,2.8l2.1,3.5C12.9,11.2,13.3,11.2,13.6,11.3z
			 M13.7,17c0.3-0.5,1-0.6,1.5-0.3l1.3-1.3c0-0.1,0-0.1,0-0.2c0,0,0-0.1,0-0.1L14,13.5c-0.4,0.5-1.1,0.6-1.7,0.2l-2.7,2.9
			c0.3,0.3,0.5,0.7,0.5,1.1l3.4-0.2C13.5,17.3,13.6,17.2,13.7,17z M7.5,27.7l6.3,0.1c0.1-0.5,0.4-0.9,0.9-1c0.6-0.2,1.3,0.2,1.5,0.8
			l2-0.3c0,0,0-0.1,0-0.1c0-0.4,0.1-0.8,0.3-1.1l-4-3.1c-0.2,0.1-0.4,0.1-0.6,0l-6.4,4.6C7.5,27.6,7.5,27.7,7.5,27.7z M6.4,16.7
			c0.7-0.9,2-1.1,2.9-0.4l2.7-2.9c-0.5-0.6-0.4-1.4,0.2-1.9L10.1,8C9.8,8.1,9.5,8.2,9.2,8.2H9.2c-0.4,0-0.7-0.1-1-0.3l-4.8,6.7
			c0.1,0.1,0.1,0.2,0.1,0.3c0,0,0,0.1,0,0.1L6.4,16.7z M7.8,7.7L7.7,7.6C6.9,6.8,6.9,5.4,7.8,4.6c0.8-0.8,2.1-0.8,2.9,0.1l3.8-3V1.6
			c-0.2-0.5,0.1-1,0.5-1.1s1,0.1,1.1,0.5l12.3-1.4h0.1l13.3,6.3c0.2-0.3,0.4-0.6,0.8-0.8c1-0.6,2.3-0.2,2.8,0.8s0.2,2.3-0.8,2.8
			l3.5,7.3v0c0,0,0,0,0,0.1l0,0.1l-1.6,4.5c0.2,0.1,0.4,0.3,0.6,0.6c0.3,0.7,0.1,1.5-0.6,1.8c-0.7,0.3-1.5,0.1-1.8-0.6l-5.9,1.8
			c0,0.1,0,0.1,0,0.2c-0.1,0.3-0.4,0.4-0.7,0.3l-2.4,2.7h-0.1l-3.1,1.5h-0.1l-3.3-0.2v0.1v0c-0.2,0.4-0.7,0.6-1.2,0.5l-2,2.9
			l-2.5,2.7c0.1,0.1,0.2,0.3,0.2,0.5c0,0.5-0.3,0.9-0.8,1l-0.4,3.1c0,0.1-0.1,0.2-0.2,0.2c-0.1,0-0.1,0-0.2-0.1l-2.2-5.7
			c-0.3,0.1-0.6,0-0.8-0.1L18,35.4c0,0.1-0.1,0.1-0.2,0.1h-3.5c0,0-0.1,0-0.1,0l-1.7-1.2l-1.8,0.6c-0.1,0-0.1,0-0.2,0l-4.1-3.7
			c0,0-0.1-0.1-0.1-0.1v-2.2C6,28.7,5.8,28.4,5.7,28l-1.3-0.2c-0.1,0-0.1-0.1-0.1-0.1l-2.7-6.1c0,0,0-0.1,0-0.1l1.2-6.1
			c-0.2-0.1-0.3-0.3-0.3-0.4c0-0.3,0.2-0.6,0.5-0.6h0.1L7.8,7.7z M9.9,19c-0.5,1-1.8,1.4-2.8,0.9s-1.4-1.8-0.9-2.8l-2.9-1.8
			c-0.1,0.1-0.1,0.1-0.2,0.1l-1.2,6l2.6,6l1.2,0.2c0-0.1,0.1-0.2,0.2-0.3C6.3,27,6.8,27,7.2,27.3l6.4-4.6c0,0,0-0.1,0-0.1
			c0-0.3,0.2-0.5,0.5-0.6l0.3-3.3c-0.4-0.1-0.7-0.4-0.8-0.8l-3.5,0.2C10.1,18.4,10.1,18.7,9.9,19z M13.6,28.1H7.4
			c-0.1,0.3-0.3,0.6-0.7,0.7v2.1l4,3.6l1.6-0.5l1.8-4.9C13.9,28.8,13.7,28.5,13.6,28.1z"/>
	</g>
	<g>
	</g>
</g>
</svg>
